<svg xmlns="http://www.w3.org/2000/svg" width="64" height="64" viewBox="0 0 64 64">
  <defs>
    <radialGradient id="core" cx="50%" cy="42%" r="65%">
      <stop offset="0%" stop-color="#fff2c2"/>
      <stop offset="55%" stop-color="#ffcd40"/>
      <stop offset="100%" stop-color="#f5a623"/>
    </radialGradient>
    <filter id="glow" x="-60%" y="-60%" width="220%" height="220%">
      <feGaussianBlur stdDeviation="1.28" result="b"/>
      <feMerge><feMergeNode in="b"/><feMergeNode in="SourceGraphic"/></feMerge>
    </filter>
  </defs>
  <rect width="64" height="64" rx="14.1" fill="#16171b"/>
  <polygon points="32.00,24.46 38.53,28.23 38.53,35.77 32.00,39.54 25.47,35.77 25.47,28.23" fill="url(#core)" filter="url(#glow)"/>
  <polygon points="46.51,24.46 53.03,28.23 53.03,35.77 46.51,39.54 39.98,35.77 39.98,28.23" fill="#f3b53d"/>
  <polygon points="39.25,37.03 45.78,40.79 45.78,48.33 39.25,52.10 32.73,48.33 32.73,40.79" fill="#f3b53d"/>
  <polygon points="24.75,37.03 31.27,40.79 31.27,48.33 24.75,52.10 18.22,48.33 18.22,40.79" fill="#f3b53d"/>
  <polygon points="17.49,24.46 24.02,28.23 24.02,35.77 17.49,39.54 10.97,35.77 10.97,28.23" fill="#f3b53d"/>
  <polygon points="24.75,11.90 31.27,15.67 31.27,23.21 24.75,26.97 18.22,23.21 18.22,15.67" fill="#f3b53d"/>
  <polygon points="39.25,11.90 45.78,15.67 45.78,23.21 39.25,26.97 32.73,23.21 32.73,15.67" fill="#f3b53d"/>
</svg>
